<svg width="126" height="59" viewBox="0 0 126 59" fill="none" xmlns="http://www.w3.org/2000/svg">
<rect x="2" y="2" width="122" height="55" rx="8" fill="url(#paint0_linear)" stroke="white" stroke-width="4"/>
<path d="M22.6758 30.8281L16.3008 28.6602V25.0742L26.6016 29.293V32.4102L16.3008 36.6289V33.043L22.6758 30.8281ZM43.3711 33.4648C43.3711 32.8633 43.1562 32.3945 42.7266 32.0586C42.3047 31.7227 41.5586 31.375 40.4883 31.0156C39.418 30.6562 38.543 30.3086 37.8633 29.9727C35.6523 28.8867 34.5469 27.3945 34.5469 25.4961C34.5469 24.5508 34.8203 23.7188 35.3672 23C35.9219 22.2734 36.7031 21.7109 37.7109 21.3125C38.7188 20.9062 39.8516 20.7031 41.1094 20.7031C42.3359 20.7031 43.4336 20.9219 44.4023 21.3594C45.3789 21.7969 46.1367 22.4219 46.6758 23.2344C47.2148 24.0391 47.4844 24.9609 47.4844 26H43.3828C43.3828 25.3047 43.168 24.7656 42.7383 24.3828C42.3164 24 41.7422 23.8086 41.0156 23.8086C40.2812 23.8086 39.6992 23.9727 39.2695 24.3008C38.8477 24.6211 38.6367 25.0312 38.6367 25.5312C38.6367 25.9688 38.8711 26.3672 39.3398 26.7266C39.8086 27.0781 40.6328 27.4453 41.8125 27.8281C42.9922 28.2031 43.9609 28.6094 44.7188 29.0469C46.5625 30.1094 47.4844 31.5742 47.4844 33.4414C47.4844 34.9336 46.9219 36.1055 45.7969 36.957C44.6719 37.8086 43.1289 38.2344 41.168 38.2344C39.7852 38.2344 38.5312 37.9883 37.4062 37.4961C36.2891 36.9961 35.4453 36.3164 34.875 35.457C34.3125 34.5898 34.0312 33.5938 34.0312 32.4688H38.1562C38.1562 33.3828 38.3906 34.0586 38.8594 34.4961C39.3359 34.9258 40.1055 35.1406 41.168 35.1406C41.8477 35.1406 42.3828 34.9961 42.7734 34.707C43.1719 34.4102 43.3711 33.9961 43.3711 33.4648ZM53.707 34.8359H60.8672V38H49.5938V20.9375H53.707V34.8359ZM72.5273 34.8125H66.8906L65.9062 38H61.5117L67.7695 20.9375H71.6367L77.9414 38H73.5234L72.5273 34.8125ZM67.875 31.6367H71.543L69.7031 25.7188L67.875 31.6367ZM84.9961 31.6484L83.3086 33.5V38H79.1953V20.9375H83.3086V28.4609L84.7383 26.293L88.418 20.9375H93.5039L87.7383 28.4844L93.5039 38H88.6289L84.9961 31.6484Z" fill="white"/>
<defs>
<linearGradient id="paint0_linear" x1="63" y1="0" x2="63" y2="59" gradientUnits="userSpaceOnUse">
<stop stop-color="#B998FF"/>
<stop offset="1" stop-color="#5000FA"/>
</linearGradient>
</defs>
</svg>
